<?xml version="1.0"?>
<svg xmlns="http://www.w3.org/2000/svg" xmlns:xlink="http://www.w3.org/1999/xlink" xmlns:svgjs="http://svgjs.com/svgjs" version="1.1" width="512" height="512" x="0" y="0" viewBox="0 0 511.668 511.668" style="enable-background:new 0 0 512 512" xml:space="preserve" class=""><g><g xmlns="http://www.w3.org/2000/svg" id="XMLID_194_"><path id="XMLID_195_" d="m30.501 30h72v-30h-102v102h30z" fill="#fffcfc" data-original="#000000" style="" class=""/><path id="XMLID_1037_" d="m439.646 441.695v-304.732h-83.062v30h53.062v40.724h-37.568v30h37.568v42.716h-85.801v-45.812h-30v45.812h-.493-60.799v-122.543h35.15v-30h-35.15v-55.457h-161.294v161.293h131.293v110.186h-48.177v67.813h-67.624v30h145.801v-30h-48.177v-37.813h48.177v-63.479h45.799v131.293h161.295zm-30-30h-101.294v-101.293h101.294zm-308.387-309.292h101.293v101.293h-101.293z" fill="#fffcfc" data-original="#000000" style="" class=""/><path id="XMLID_1051_" d="m357.077 72.403h82.568v30h-82.568z" fill="#fffcfc" data-original="#000000" style="" class=""/><path id="XMLID_1052_" d="m136.413 135.563h30.985v30h-30.985z" fill="#fffcfc" data-original="#000000" style="" class=""/><path id="XMLID_1061_" d="m341.092 346.049h30.985v30h-30.985z" fill="#fffcfc" data-original="#000000" style="" class=""/><path id="XMLID_1062_" d="m287.523 72.403h30.985v30h-30.985z" fill="#fffcfc" data-original="#000000" style="" class=""/><path id="XMLID_1063_" d="m293.352 174.775h30.985v30h-30.985z" fill="#fffcfc" data-original="#000000" style="" class=""/><path id="XMLID_1064_" d="m86.259 343.882h30.985v30h-30.985z" fill="#fffcfc" data-original="#000000" style="" class=""/><path id="XMLID_1065_" d="m79.8 280.402h87.105v30h-87.105z" fill="#fffcfc" data-original="#000000" style="" class=""/><path id="XMLID_1066_" d="m30.501 409.668h-30v102h102v-30h-72z" fill="#fffcfc" data-original="#000000" style="" class=""/><path id="XMLID_1067_" d="m409.167 0v30l72 .001v72h30v-102z" fill="#fffcfc" data-original="#000000" style="" class=""/><path id="XMLID_1068_" d="m481.167 481.668-72-.001v30l102 .001v-102h-30z" fill="#fffcfc" data-original="#000000" style="" class=""/></g></g></svg>
